<?xml version="1.0" standalone="no"?>
<!DOCTYPE svg PUBLIC "-//W3C//DTD SVG 20010904//EN"
 "http://www.w3.org/TR/2001/REC-SVG-20010904/DTD/svg10.dtd">
<svg version="1.0" xmlns="http://www.w3.org/2000/svg"
 width="512.000000pt" height="512.000000pt" viewBox="0 0 512.000000 512.000000"
 preserveAspectRatio="xMidYMid meet">
<metadata>
Created by potrace 1.11, written by Peter Selinger 2001-2013
</metadata>
<g transform="translate(0.000000,512.000000) scale(0.100000,-0.100000)"
fill="#000000" stroke="none">
<path d="M2379 5116 c-2 -2 -38 -6 -79 -10 -64 -6 -213 -30 -315 -51 -124 -26
-334 -97 -478 -161 -745 -335 -1299 -1031 -1456 -1829 -40 -200 -46 -267 -45
-515 0 -184 3 -241 19 -345 3 -16 7 -43 9 -60 8 -58 38 -191 61 -275 196 -699
675 -1277 1327 -1602 198 -99 401 -169 608 -211 229 -47 285 -52 560 -52 304
1 490 30 764 120 658 215 1195 680 1500 1299 41 83 91 196 111 250 41 110 109
371 120 456 4 30 9 66 11 80 26 200 26 554 0 705 -3 17 -8 44 -10 60 -3 17
-10 55 -16 85 -6 30 -14 66 -16 80 -3 14 -16 64 -30 112 -142 509 -445 968
-855 1298 -93 75 -272 200 -286 200 -4 0 -14 6 -22 14 -20 18 -257 137 -331
166 -153 61 -375 126 -494 144 -21 4 -41 8 -45 10 -3 2 -35 7 -71 11 -36 4
-76 10 -90 12 -31 5 -446 13 -451 9z"/>
</g>
</svg>
